<mxfile host="Electron" agent="Mozilla/5.0 (Windows NT 10.0; Win64; x64) AppleWebKit/537.36 (KHTML, like Gecko) draw.io/26.0.4 Chrome/128.0.6613.186 Electron/32.2.5 Safari/537.36" version="26.0.4">
  <diagram name="Page-1" id="2YBvvXClWsGukQMizWep">
    <mxGraphModel dx="842" dy="568" grid="1" gridSize="10" guides="1" tooltips="1" connect="1" arrows="1" fold="1" page="1" pageScale="1" pageWidth="850" pageHeight="1100" math="0" shadow="0">
      <root>
        <mxCell id="0" />
        <mxCell id="1" parent="0" />
        <mxCell id="8qbOOOZ3yt9xHwVIPmfH-4" value="启动" style="html=1;whiteSpace=wrap;" vertex="1" parent="1">
          <mxGeometry x="10" y="60" width="40" height="20" as="geometry" />
        </mxCell>
        <mxCell id="8qbOOOZ3yt9xHwVIPmfH-5" value="Platform" style="shape=umlLifeline;perimeter=lifelinePerimeter;whiteSpace=wrap;html=1;container=1;dropTarget=0;collapsible=0;recursiveResize=0;outlineConnect=0;portConstraint=eastwest;newEdgeStyle={&quot;curved&quot;:0,&quot;rounded&quot;:0};" vertex="1" parent="1">
          <mxGeometry x="130" y="50" width="100" height="370" as="geometry" />
        </mxCell>
        <mxCell id="8qbOOOZ3yt9xHwVIPmfH-21" style="edgeStyle=orthogonalEdgeStyle;rounded=0;orthogonalLoop=1;jettySize=auto;html=1;" edge="1" parent="1" source="8qbOOOZ3yt9xHwVIPmfH-8" target="8qbOOOZ3yt9xHwVIPmfH-20">
          <mxGeometry relative="1" as="geometry" />
        </mxCell>
        <mxCell id="8qbOOOZ3yt9xHwVIPmfH-8" value="Windows" style="whiteSpace=wrap;html=1;" vertex="1" parent="1">
          <mxGeometry x="142.5" y="120" width="75" height="20" as="geometry" />
        </mxCell>
        <mxCell id="8qbOOOZ3yt9xHwVIPmfH-23" style="edgeStyle=orthogonalEdgeStyle;rounded=0;orthogonalLoop=1;jettySize=auto;html=1;" edge="1" parent="1" source="8qbOOOZ3yt9xHwVIPmfH-9" target="8qbOOOZ3yt9xHwVIPmfH-20">
          <mxGeometry relative="1" as="geometry" />
        </mxCell>
        <mxCell id="8qbOOOZ3yt9xHwVIPmfH-9" value="Linux" style="whiteSpace=wrap;html=1;" vertex="1" parent="1">
          <mxGeometry x="142.5" y="160" width="75" height="20" as="geometry" />
        </mxCell>
        <mxCell id="8qbOOOZ3yt9xHwVIPmfH-24" style="edgeStyle=orthogonalEdgeStyle;rounded=0;orthogonalLoop=1;jettySize=auto;html=1;" edge="1" parent="1" source="8qbOOOZ3yt9xHwVIPmfH-10" target="8qbOOOZ3yt9xHwVIPmfH-20">
          <mxGeometry relative="1" as="geometry" />
        </mxCell>
        <mxCell id="8qbOOOZ3yt9xHwVIPmfH-10" value="Mac" style="whiteSpace=wrap;html=1;" vertex="1" parent="1">
          <mxGeometry x="142.5" y="200" width="75" height="20" as="geometry" />
        </mxCell>
        <mxCell id="8qbOOOZ3yt9xHwVIPmfH-17" value="GuardedMain" style="shape=umlLifeline;perimeter=lifelinePerimeter;whiteSpace=wrap;html=1;container=1;dropTarget=0;collapsible=0;recursiveResize=0;outlineConnect=0;portConstraint=eastwest;newEdgeStyle={&quot;curved&quot;:0,&quot;rounded&quot;:0};" vertex="1" parent="1">
          <mxGeometry x="270" y="50" width="100" height="200" as="geometry" />
        </mxCell>
        <mxCell id="8qbOOOZ3yt9xHwVIPmfH-20" value="" style="html=1;points=[[0,0,0,0,5],[0,1,0,0,-5],[1,0,0,0,5],[1,1,0,0,-5]];perimeter=orthogonalPerimeter;outlineConnect=0;targetShapes=umlLifeline;portConstraint=eastwest;newEdgeStyle={&quot;curved&quot;:0,&quot;rounded&quot;:0};" vertex="1" parent="8qbOOOZ3yt9xHwVIPmfH-17">
          <mxGeometry x="45" y="60" width="10" height="120" as="geometry" />
        </mxCell>
        <mxCell id="8qbOOOZ3yt9xHwVIPmfH-26" value="&lt;font style=&quot;font-size: 8px;&quot;&gt;LaunchWindowsStartup&lt;/font&gt;" style="text;html=1;align=center;verticalAlign=middle;resizable=0;points=[];autosize=1;strokeColor=none;fillColor=none;" vertex="1" parent="1">
          <mxGeometry x="210" y="100" width="110" height="30" as="geometry" />
        </mxCell>
        <mxCell id="8qbOOOZ3yt9xHwVIPmfH-27" value="&lt;font style=&quot;font-size: 8px;&quot;&gt;CommonLinuxMain&lt;/font&gt;" style="text;html=1;align=center;verticalAlign=middle;resizable=0;points=[];autosize=1;strokeColor=none;fillColor=none;" vertex="1" parent="1">
          <mxGeometry x="217.5" y="140" width="90" height="30" as="geometry" />
        </mxCell>
        <mxCell id="8qbOOOZ3yt9xHwVIPmfH-28" value="&lt;font style=&quot;font-size: 8px;&quot;&gt;CommonMacMain&lt;/font&gt;" style="text;html=1;align=center;verticalAlign=middle;resizable=0;points=[];autosize=1;strokeColor=none;fillColor=none;" vertex="1" parent="1">
          <mxGeometry x="217.5" y="180" width="90" height="30" as="geometry" />
        </mxCell>
        <mxCell id="8qbOOOZ3yt9xHwVIPmfH-34" style="edgeStyle=orthogonalEdgeStyle;rounded=0;orthogonalLoop=1;jettySize=auto;html=1;" edge="1" parent="1" source="8qbOOOZ3yt9xHwVIPmfH-30" target="8qbOOOZ3yt9xHwVIPmfH-33">
          <mxGeometry relative="1" as="geometry" />
        </mxCell>
        <mxCell id="8qbOOOZ3yt9xHwVIPmfH-30" value="Android" style="whiteSpace=wrap;html=1;" vertex="1" parent="1">
          <mxGeometry x="150" y="380" width="60" height="20" as="geometry" />
        </mxCell>
        <mxCell id="8qbOOOZ3yt9xHwVIPmfH-31" value="AndroidMain" style="shape=umlLifeline;perimeter=lifelinePerimeter;whiteSpace=wrap;html=1;container=1;dropTarget=0;collapsible=0;recursiveResize=0;outlineConnect=0;portConstraint=eastwest;newEdgeStyle={&quot;curved&quot;:0,&quot;rounded&quot;:0};" vertex="1" parent="1">
          <mxGeometry x="280" y="270" width="100" height="180" as="geometry" />
        </mxCell>
        <mxCell id="8qbOOOZ3yt9xHwVIPmfH-33" value="" style="html=1;points=[[0,0,0,0,5],[0,1,0,0,-5],[1,0,0,0,5],[1,1,0,0,-5]];perimeter=orthogonalPerimeter;outlineConnect=0;targetShapes=umlLifeline;portConstraint=eastwest;newEdgeStyle={&quot;curved&quot;:0,&quot;rounded&quot;:0};" vertex="1" parent="8qbOOOZ3yt9xHwVIPmfH-31">
          <mxGeometry x="45" y="80" width="10" height="80" as="geometry" />
        </mxCell>
        <mxCell id="8qbOOOZ3yt9xHwVIPmfH-37" style="edgeStyle=orthogonalEdgeStyle;rounded=0;orthogonalLoop=1;jettySize=auto;html=1;" edge="1" parent="1">
          <mxGeometry relative="1" as="geometry">
            <mxPoint x="530" y="530" as="targetPoint" />
            <mxPoint x="529.66" y="80" as="sourcePoint" />
          </mxGeometry>
        </mxCell>
        <mxCell id="8qbOOOZ3yt9xHwVIPmfH-36" value="EngineLoop" style="whiteSpace=wrap;html=1;" vertex="1" parent="1">
          <mxGeometry x="470" y="30" width="120" height="60" as="geometry" />
        </mxCell>
        <mxCell id="8qbOOOZ3yt9xHwVIPmfH-38" value="" style="html=1;points=[[0,0,0,0,5],[0,1,0,0,-5],[1,0,0,0,5],[1,1,0,0,-5]];perimeter=orthogonalPerimeter;outlineConnect=0;targetShapes=umlLifeline;portConstraint=eastwest;newEdgeStyle={&quot;curved&quot;:0,&quot;rounded&quot;:0};" vertex="1" parent="1">
          <mxGeometry x="525" y="130" width="10" height="80" as="geometry" />
        </mxCell>
        <mxCell id="8qbOOOZ3yt9xHwVIPmfH-41" value="FEngineLoop::PreInit" style="text;html=1;align=center;verticalAlign=middle;resizable=0;points=[];autosize=1;strokeColor=none;fillColor=none;" vertex="1" parent="1">
          <mxGeometry x="530" y="140" width="140" height="30" as="geometry" />
        </mxCell>
        <mxCell id="8qbOOOZ3yt9xHwVIPmfH-42" value="" style="html=1;points=[[0,0,0,0,5],[0,1,0,0,-5],[1,0,0,0,5],[1,1,0,0,-5]];perimeter=orthogonalPerimeter;outlineConnect=0;targetShapes=umlLifeline;portConstraint=eastwest;newEdgeStyle={&quot;curved&quot;:0,&quot;rounded&quot;:0};" vertex="1" parent="1">
          <mxGeometry x="525" y="225" width="10" height="80" as="geometry" />
        </mxCell>
        <mxCell id="8qbOOOZ3yt9xHwVIPmfH-45" value="FEngineLoop::Init" style="text;html=1;align=center;verticalAlign=middle;resizable=0;points=[];autosize=1;strokeColor=none;fillColor=none;" vertex="1" parent="1">
          <mxGeometry x="540" y="230" width="120" height="30" as="geometry" />
        </mxCell>
        <mxCell id="8qbOOOZ3yt9xHwVIPmfH-59" style="edgeStyle=orthogonalEdgeStyle;rounded=0;orthogonalLoop=1;jettySize=auto;html=1;curved=0;" edge="1" parent="1" source="8qbOOOZ3yt9xHwVIPmfH-46" target="8qbOOOZ3yt9xHwVIPmfH-58">
          <mxGeometry relative="1" as="geometry">
            <Array as="points">
              <mxPoint x="555" y="350" />
              <mxPoint x="555" y="410" />
            </Array>
          </mxGeometry>
        </mxCell>
        <mxCell id="8qbOOOZ3yt9xHwVIPmfH-46" value="" style="html=1;points=[[0,0,0,0,5],[0,1,0,0,-5],[1,0,0,0,5],[1,1,0,0,-5]];perimeter=orthogonalPerimeter;outlineConnect=0;targetShapes=umlLifeline;portConstraint=eastwest;newEdgeStyle={&quot;curved&quot;:0,&quot;rounded&quot;:0};" vertex="1" parent="1">
          <mxGeometry x="525" y="320" width="10" height="130" as="geometry" />
        </mxCell>
        <mxCell id="8qbOOOZ3yt9xHwVIPmfH-47" value="while( !IsEngineExitRequested() ) {&lt;div&gt;&lt;span style=&quot;white-space: pre;&quot;&gt;&#x9;&lt;/span&gt;FEngineLoop::Tick&lt;br&gt;&lt;/div&gt;&lt;div&gt;}&lt;/div&gt;" style="text;html=1;align=left;verticalAlign=middle;resizable=0;points=[];autosize=1;strokeColor=none;fillColor=none;" vertex="1" parent="1">
          <mxGeometry x="570" y="330" width="210" height="60" as="geometry" />
        </mxCell>
        <mxCell id="8qbOOOZ3yt9xHwVIPmfH-58" value="" style="html=1;points=[[0,0,0,0,5],[0,1,0,0,-5],[1,0,0,0,5],[1,1,0,0,-5]];perimeter=orthogonalPerimeter;outlineConnect=0;targetShapes=umlLifeline;portConstraint=eastwest;newEdgeStyle={&quot;curved&quot;:0,&quot;rounded&quot;:0};" vertex="1" parent="1">
          <mxGeometry x="530" y="375" width="10" height="70" as="geometry" />
        </mxCell>
        <mxCell id="8qbOOOZ3yt9xHwVIPmfH-62" style="edgeStyle=orthogonalEdgeStyle;rounded=0;orthogonalLoop=1;jettySize=auto;html=1;curved=0;" edge="1" parent="1" source="8qbOOOZ3yt9xHwVIPmfH-20" target="8qbOOOZ3yt9xHwVIPmfH-38">
          <mxGeometry relative="1" as="geometry">
            <Array as="points">
              <mxPoint x="480" y="170" />
              <mxPoint x="480" y="170" />
            </Array>
          </mxGeometry>
        </mxCell>
        <mxCell id="8qbOOOZ3yt9xHwVIPmfH-63" style="edgeStyle=orthogonalEdgeStyle;rounded=0;orthogonalLoop=1;jettySize=auto;html=1;curved=0;" edge="1" parent="1" source="8qbOOOZ3yt9xHwVIPmfH-33" target="8qbOOOZ3yt9xHwVIPmfH-38">
          <mxGeometry relative="1" as="geometry" />
        </mxCell>
        <mxCell id="8qbOOOZ3yt9xHwVIPmfH-64" value="" style="html=1;shadow=0;dashed=0;align=center;verticalAlign=middle;shape=mxgraph.arrows2.arrow;dy=0.6;dx=40;notch=0;" vertex="1" parent="1">
          <mxGeometry x="390" y="190" width="100" height="70" as="geometry" />
        </mxCell>
        <mxCell id="8qbOOOZ3yt9xHwVIPmfH-65" value="" style="html=1;shadow=0;dashed=0;align=center;verticalAlign=middle;shape=mxgraph.arrows2.arrow;dy=0.6;dx=40;notch=0;" vertex="1" parent="1">
          <mxGeometry x="60" y="65" width="60" height="10" as="geometry" />
        </mxCell>
      </root>
    </mxGraphModel>
  </diagram>
</mxfile>
